<svg width="64" height="64" viewBox="0 0 64 64" fill="none" xmlns="http://www.w3.org/2000/svg">
<path d="M59.5 8H49V2C49 1.73478 48.8946 1.48043 48.7071 1.29289C48.5196 1.10536 48.2652 1 48 1H16C15.7348 1 15.4804 1.10536 15.2929 1.29289C15.1054 1.48043 15 1.73478 15 2V8H4.5C3.57206 8.00103 2.68241 8.3701 2.02626 9.02626C1.3701 9.68242 1.00103 10.5721 1 11.5V49.5C1.00103 50.4279 1.3701 51.3176 2.02626 51.9737C2.68241 52.6299 3.57206 52.999 4.5 53H23.6737L22.2463 58H18C17.7348 58 17.4804 58.1054 17.2929 58.2929C17.1054 58.4804 17 58.7348 17 59V62C17 62.2652 17.1054 62.5196 17.2929 62.7071C17.4804 62.8946 17.7348 63 18 63H46C46.2652 63 46.5196 62.8946 46.7071 62.7071C46.8946 62.5196 47 62.2652 47 62V59C47 58.7348 46.8946 58.4804 46.7071 58.2929C46.5196 58.1054 46.2652 58 46 58H41.7537L40.3262 53H59.5C60.4279 52.999 61.3176 52.6299 61.9737 51.9737C62.6299 51.3176 62.999 50.4279 63 49.5V11.5C62.999 10.5721 62.6299 9.68242 61.9737 9.02626C61.3176 8.3701 60.4279 8.00103 59.5 8ZM26 3H38V6.5C38 6.63261 37.9473 6.75979 37.8536 6.85355C37.7598 6.94732 37.6326 7 37.5 7H26.5C26.3674 7 26.2402 6.94732 26.1464 6.85355C26.0527 6.75979 26 6.63261 26 6.5V3ZM26.5 9H37.5C38.1628 8.99934 38.7983 8.73573 39.267 8.26704C39.7357 7.79834 39.9993 7.16284 40 6.5V6H44V38H20V6H24V6.5C24.0007 7.16284 24.2643 7.79834 24.733 8.26704C25.2017 8.73573 25.8372 8.99934 26.5 9ZM17 3H24V4H19C18.7348 4 18.4804 4.10536 18.2929 4.29289C18.1054 4.48043 18 4.73478 18 5V39C18 39.2652 18.1054 39.5196 18.2929 39.7071C18.4804 39.8946 18.7348 40 19 40H45C45.2652 40 45.5196 39.8946 45.7071 39.7071C45.8946 39.5196 46 39.2652 46 39V5C46 4.73478 45.8946 4.48043 45.7071 4.29289C45.5196 4.10536 45.2652 4 45 4H40V3H47V41H17V3ZM45 60V61H19V60H45ZM24.3263 58L25.7537 53H38.2463L39.6738 58H24.3263ZM61 49.5C60.9997 49.8977 60.8415 50.2791 60.5603 50.5603C60.2791 50.8415 59.8977 50.9997 59.5 51H4.5C4.10228 50.9997 3.72094 50.8415 3.43971 50.5603C3.15847 50.2791 3.00033 49.8977 3 49.5V47H61V49.5ZM61 45H3V11.5C3.00033 11.1023 3.15847 10.7209 3.43971 10.4397C3.72094 10.1585 4.10228 10.0003 4.5 10H15V42C15 42.2652 15.1054 42.5196 15.2929 42.7071C15.4804 42.8946 15.7348 43 16 43H48C48.2652 43 48.5196 42.8946 48.7071 42.7071C48.8946 42.5196 49 42.2652 49 42V10H59.5C59.8977 10.0003 60.2791 10.1585 60.5603 10.4397C60.8415 10.7209 60.9997 11.1023 61 11.5V45Z" fill="url(#paint0_linear_6_318)"/>
<path d="M21 12V20C21 20.2652 21.1054 20.5196 21.2929 20.7071C21.4804 20.8946 21.7348 21 22 21H30C30.2652 21 30.5196 20.8946 30.7071 20.7071C30.8946 20.5196 31 20.2652 31 20V15.618L32.4472 14.8944C32.5657 14.8363 32.6716 14.7553 32.7586 14.6561C32.8457 14.5569 32.9122 14.4414 32.9544 14.3164C32.9966 14.1913 33.0137 14.0592 33.0046 13.9275C32.9955 13.7958 32.9604 13.6673 32.9014 13.5492C32.8423 13.4312 32.7605 13.326 32.6607 13.2397C32.5608 13.1535 32.4448 13.0878 32.3194 13.0466C32.1941 13.0053 32.0618 12.9893 31.9302 12.9995C31.7986 13.0096 31.6703 13.0457 31.5527 13.1056L31 13.382V12C31 11.7348 30.8946 11.4804 30.7071 11.2929C30.5196 11.1054 30.2652 11 30 11H22C21.7348 11 21.4804 11.1054 21.2929 11.2929C21.1054 11.4804 21 11.7348 21 12ZM23 13H29V14.382L26.1975 15.7832L25.7071 15.2929C25.6143 15.2 25.504 15.1264 25.3827 15.0761C25.2614 15.0258 25.1313 15 25 15C24.8687 15 24.7386 15.0258 24.6173 15.0761C24.496 15.1264 24.3857 15.2 24.2929 15.2929C24.2 15.3857 24.1264 15.496 24.0761 15.6173C24.0258 15.7386 24 15.8687 24 16C24 16.1313 24.0258 16.2614 24.0761 16.3827C24.1264 16.504 24.2 16.6143 24.2929 16.7071L25.2929 17.7071C25.4413 17.8556 25.6326 17.9536 25.8398 17.9872C26.047 18.0209 26.2595 17.9885 26.4472 17.8946L29 16.618V19H23V13Z" fill="url(#paint1_linear_6_318)"/>
<path d="M31.5527 26.1056L31 26.382V25C31 24.7348 30.8946 24.4804 30.7071 24.2929C30.5196 24.1054 30.2652 24 30 24H22C21.7348 24 21.4804 24.1054 21.2929 24.2929C21.1054 24.4804 21 24.7348 21 25V33C21 33.2652 21.1054 33.5196 21.2929 33.7071C21.4804 33.8946 21.7348 34 22 34H30C30.2652 34 30.5196 33.8946 30.7071 33.7071C30.8946 33.5196 31 33.2652 31 33V28.618L32.4472 27.8944C32.5657 27.8363 32.6716 27.7553 32.7586 27.6561C32.8457 27.5569 32.9122 27.4414 32.9544 27.3164C32.9966 27.1913 33.0137 27.0592 33.0046 26.9275C32.9955 26.7958 32.9604 26.6673 32.9014 26.5492C32.8423 26.4312 32.7605 26.326 32.6607 26.2397C32.5608 26.1535 32.4448 26.0878 32.3194 26.0466C32.1941 26.0053 32.0618 25.9893 31.9302 25.9995C31.7986 26.0096 31.6703 26.0457 31.5527 26.1056ZM29 32H23V26H29V27.382L26.1975 28.7833L25.7071 28.2929C25.5196 28.1053 25.2652 28 25 28C24.7348 28 24.4804 28.1053 24.2929 28.2929C24.1053 28.4804 24 28.7348 24 29C24 29.2652 24.1053 29.5196 24.2929 29.7071L25.2929 30.7071C25.4413 30.8556 25.6326 30.9536 25.8398 30.9872C26.047 31.0209 26.2595 30.9885 26.4472 30.8946L29 29.618V32Z" fill="url(#paint2_linear_6_318)"/>
<path d="M35 14H42C42.2652 14 42.5196 13.8946 42.7071 13.7071C42.8946 13.5196 43 13.2652 43 13C43 12.7348 42.8946 12.4804 42.7071 12.2929C42.5196 12.1054 42.2652 12 42 12H35C34.7348 12 34.4804 12.1054 34.2929 12.2929C34.1054 12.4804 34 12.7348 34 13C34 13.2652 34.1054 13.5196 34.2929 13.7071C34.4804 13.8946 34.7348 14 35 14Z" fill="url(#paint3_linear_6_318)"/>
<path d="M35 17H42C42.2652 17 42.5196 16.8946 42.7071 16.7071C42.8946 16.5196 43 16.2652 43 16C43 15.7348 42.8946 15.4804 42.7071 15.2929C42.5196 15.1054 42.2652 15 42 15H35C34.7348 15 34.4804 15.1054 34.2929 15.2929C34.1054 15.4804 34 15.7348 34 16C34 16.2652 34.1054 16.5196 34.2929 16.7071C34.4804 16.8946 34.7348 17 35 17Z" fill="url(#paint4_linear_6_318)"/>
<path d="M35 20H40C40.2652 20 40.5196 19.8946 40.7071 19.7071C40.8946 19.5196 41 19.2652 41 19C41 18.7348 40.8946 18.4804 40.7071 18.2929C40.5196 18.1054 40.2652 18 40 18H35C34.7348 18 34.4804 18.1054 34.2929 18.2929C34.1054 18.4804 34 18.7348 34 19C34 19.2652 34.1054 19.5196 34.2929 19.7071C34.4804 19.8946 34.7348 20 35 20Z" fill="url(#paint5_linear_6_318)"/>
<path d="M35 27H42C42.2652 27 42.5196 26.8946 42.7071 26.7071C42.8946 26.5196 43 26.2652 43 26C43 25.7348 42.8946 25.4804 42.7071 25.2929C42.5196 25.1054 42.2652 25 42 25H35C34.7348 25 34.4804 25.1054 34.2929 25.2929C34.1054 25.4804 34 25.7348 34 26C34 26.2652 34.1054 26.5196 34.2929 26.7071C34.4804 26.8946 34.7348 27 35 27Z" fill="url(#paint6_linear_6_318)"/>
<path d="M35 30H42C42.2652 30 42.5196 29.8946 42.7071 29.7071C42.8946 29.5196 43 29.2652 43 29C43 28.7348 42.8946 28.4804 42.7071 28.2929C42.5196 28.1054 42.2652 28 42 28H35C34.7348 28 34.4804 28.1054 34.2929 28.2929C34.1054 28.4804 34 28.7348 34 29C34 29.2652 34.1054 29.5196 34.2929 29.7071C34.4804 29.8946 34.7348 30 35 30Z" fill="url(#paint7_linear_6_318)"/>
<path d="M35 33H40C40.2652 33 40.5196 32.8946 40.7071 32.7071C40.8946 32.5196 41 32.2652 41 32C41 31.7348 40.8946 31.4804 40.7071 31.2929C40.5196 31.1054 40.2652 31 40 31H35C34.7348 31 34.4804 31.1054 34.2929 31.2929C34.1054 31.4804 34 31.7348 34 32C34 32.2652 34.1054 32.5196 34.2929 32.7071C34.4804 32.8946 34.7348 33 35 33Z" fill="url(#paint8_linear_6_318)"/>
<defs>
<linearGradient id="paint0_linear_6_318" x1="32" y1="1" x2="32" y2="63" gradientUnits="userSpaceOnUse">
<stop offset="0.875" stop-color="#2351DC"/>
<stop offset="1" stop-color="#2351DC" stop-opacity="0"/>
</linearGradient>
<linearGradient id="paint1_linear_6_318" x1="27.0035" y1="11" x2="27.0035" y2="21" gradientUnits="userSpaceOnUse">
<stop offset="0.875" stop-color="#2351DC"/>
<stop offset="1" stop-color="#2351DC" stop-opacity="0"/>
</linearGradient>
<linearGradient id="paint2_linear_6_318" x1="27.0035" y1="24" x2="27.0035" y2="34" gradientUnits="userSpaceOnUse">
<stop offset="0.875" stop-color="#2351DC"/>
<stop offset="1" stop-color="#2351DC" stop-opacity="0"/>
</linearGradient>
<linearGradient id="paint3_linear_6_318" x1="38.5" y1="12" x2="38.5" y2="14" gradientUnits="userSpaceOnUse">
<stop offset="0.875" stop-color="#2351DC"/>
<stop offset="1" stop-color="#2351DC" stop-opacity="0"/>
</linearGradient>
<linearGradient id="paint4_linear_6_318" x1="38.5" y1="15" x2="38.5" y2="17" gradientUnits="userSpaceOnUse">
<stop offset="0.875" stop-color="#2351DC"/>
<stop offset="1" stop-color="#2351DC" stop-opacity="0"/>
</linearGradient>
<linearGradient id="paint5_linear_6_318" x1="37.5" y1="18" x2="37.5" y2="20" gradientUnits="userSpaceOnUse">
<stop offset="0.875" stop-color="#2351DC"/>
<stop offset="1" stop-color="#2351DC" stop-opacity="0"/>
</linearGradient>
<linearGradient id="paint6_linear_6_318" x1="38.5" y1="25" x2="38.5" y2="27" gradientUnits="userSpaceOnUse">
<stop offset="0.875" stop-color="#2351DC"/>
<stop offset="1" stop-color="#2351DC" stop-opacity="0"/>
</linearGradient>
<linearGradient id="paint7_linear_6_318" x1="38.5" y1="28" x2="38.5" y2="30" gradientUnits="userSpaceOnUse">
<stop offset="0.875" stop-color="#2351DC"/>
<stop offset="1" stop-color="#2351DC" stop-opacity="0"/>
</linearGradient>
<linearGradient id="paint8_linear_6_318" x1="37.5" y1="31" x2="37.5" y2="33" gradientUnits="userSpaceOnUse">
<stop offset="0.875" stop-color="#2351DC"/>
<stop offset="1" stop-color="#2351DC" stop-opacity="0"/>
</linearGradient>
</defs>
</svg>
