<svg width="60" height="32" viewBox="0 0 60 32" fill="none" xmlns="http://www.w3.org/2000/svg">
<path d="M30 1.84375C46.0312 1.84375 58.4062 8.59375 58.4062 16C58.4062 23.5 46.0312 30.25 30 30.25C13.875 30.25 1.5 23.5 1.5 16C1.5 8.59375 13.875 1.84375 30 1.84375ZM30 0.25C13.4062 0.25 0 7.28125 0 16C0 24.7188 13.4062 31.8438 30 31.8438C46.5 31.8438 60 24.7188 60 16C60 7.28125 46.5 0.25 30 0.25ZM20.4375 14.7812C19.6875 18.5312 17.0625 18.1562 13.875 18.1562L15.0938 11.5938C18.6562 11.5938 21.0938 11.2188 20.4375 14.7812ZM9.09375 24.9062H12.5625L13.3125 20.6875C17.1562 20.6875 19.5938 20.9688 21.8438 18.9062C24.2812 16.6562 24.8438 12.625 23.1562 10.6562C22.2188 9.625 20.8125 9.0625 18.75 9.0625H12.1875L9.09375 24.9062ZM26.5312 4.84375L23.4375 20.6875H26.8125L28.5938 11.5938C31.4062 11.5938 32.5312 11.5 33.0938 12.0625C33.5625 12.625 33.2812 13.1875 31.875 20.6875H35.3438C36.8438 13 37.5 11.3125 36.0938 10.0938C34.7812 8.875 32.0625 9.0625 29.0625 9.0625L29.9062 4.84375H26.5312ZM47.3438 14.7812C46.5938 18.625 43.875 18.1562 40.6875 18.1562L42 11.5938C45.5625 11.5938 48 11.2188 47.3438 14.7812ZM36 24.9062H39.4688L40.2188 20.6875C44.25 20.6875 46.5 20.875 48.6562 18.9062C51.1875 16.6562 51.75 12.625 50.0625 10.6562C49.125 9.625 47.625 9.0625 45.6562 9.0625H39.0938L36 24.9062Z" fill="#2351DC"/>
</svg>
