<svg width="64" height="64" viewBox="0 0 64 64" fill="none" xmlns="http://www.w3.org/2000/svg">
<g clip-path="url(#clip0_69_114)">
<path d="M44.4269 64.0047C45.8728 64.0008 47.1381 63.0323 47.5193 61.6377L50.4681 50.6282L61.6358 47.6428C63.3374 47.18 64.3449 45.4296 63.8915 43.7259L58.1012 22.1449L58.5595 20.4388C58.974 18.8675 58.1441 17.2352 56.6304 16.6435L54.0233 6.91103C53.5566 5.21084 51.8105 4.20186 50.1045 4.64607L31.0593 9.75492L15.0893 5.47346C14.4347 5.29383 13.7396 5.33141 13.1085 5.58036L9.11891 1.59764C7.77409 0.240615 5.8064 -0.293408 3.96026 0.198147C2.11412 0.689702 0.672161 2.13118 0.180118 3.97732C-0.311926 5.82346 0.221121 7.79163 1.57766 9.13645L8.84946 16.4083L0.137162 48.9319C-0.31876 50.6375 0.689734 52.3904 2.39334 52.8541L43.5966 63.8939C43.867 63.9676 44.1463 64.0052 44.4269 64.0047ZM61.8281 44.2771C61.9789 44.8428 61.6455 45.4247 61.0812 45.5804L51.1066 48.2461L56.9941 26.2677L61.8281 44.2771ZM50.6502 6.70845C50.925 6.63328 51.2184 6.67135 51.4649 6.81389C51.7114 6.95594 51.8906 7.19122 51.9628 7.46653L54.2375 15.9636L35.1787 10.8576L50.6502 6.70845ZM32.3089 32.3328L26.9252 30.5384L30.5145 26.9457L32.3089 32.3289V32.3328ZM27.9689 26.481L18.9207 17.4319C18.5043 17.0155 17.8288 17.0155 17.4124 17.4324C16.996 17.8487 16.9965 18.5243 17.4134 18.9407L26.462 27.9874L24.9546 29.4967L9.87308 14.4152L11.3809 12.9073L14.3962 15.924C14.6661 16.1935 15.0586 16.2989 15.4271 16.1998C15.7952 16.1012 16.0827 15.8137 16.1813 15.4456C16.2799 15.0776 16.1749 14.6846 15.9055 14.4152L12.8898 11.3995L14.3976 9.89062L29.4767 24.9722L27.9689 26.481ZM6.85639 11.3995L11.3809 6.87491L12.8888 8.38277L8.36522 12.9073L6.85639 11.3995ZM2.14927 5.36705C2.14927 4.07299 2.92883 2.90585 4.12428 2.41088C5.32022 1.91591 6.69628 2.18975 7.61105 3.10501L9.87308 5.36705L5.34853 9.8916L3.08552 7.62859C2.48413 7.03013 2.14683 6.21592 2.14927 5.36705ZM2.19857 49.4918L10.5926 18.1514L24.1995 31.7583C24.3108 31.8671 24.4445 31.9496 24.5919 32.0004C24.6002 32.0004 24.6066 32.0121 24.6163 32.015L31.6406 34.361C31.8598 34.4333 32.0897 34.4689 32.3206 34.4679C32.7224 34.4664 33.1153 34.3508 33.4531 34.134L45.7161 37.427C45.8064 37.4519 45.8997 37.4646 45.9934 37.4641C46.5289 37.4641 46.9809 37.0672 47.0502 36.5366C47.12 36.006 46.7856 35.5062 46.2687 35.368L34.4323 32.1903C34.4216 32.0092 34.3889 31.83 34.3342 31.6567L31.9882 24.6319C31.9882 24.6222 31.9765 24.6158 31.9721 24.6061C31.9213 24.4601 31.8388 24.3268 31.7309 24.216L15.2494 7.72768L55.74 18.5736C56.0139 18.6469 56.2472 18.8255 56.3888 19.071C56.5303 19.3161 56.5684 19.6075 56.4952 19.8814L45.4603 61.0798C45.3876 61.3536 45.2085 61.5874 44.9629 61.729C44.7174 61.8705 44.4255 61.9086 44.1521 61.8349L2.95323 50.7991C2.67987 50.7259 2.44654 50.5472 2.3045 50.3022C2.16294 50.0566 2.12486 49.7652 2.19857 49.4918Z" fill="#2351DC"/>
<path d="M49.3078 25.1002C49.8428 25.0997 50.2949 24.7029 50.3647 24.1723C50.434 23.6422 50.0996 23.1418 49.5832 23.0037L34.4162 18.9399C34.0442 18.8291 33.642 18.9292 33.3652 19.2011C33.0885 19.4725 32.9811 19.8732 33.0846 20.2467C33.188 20.6206 33.4868 20.9086 33.8636 20.9989L49.0316 25.0636C49.1219 25.088 49.2146 25.1002 49.3078 25.1002Z" fill="#2351DC"/>
<path d="M47.6506 31.2794C48.1856 31.2789 48.6376 30.8825 48.7074 30.3519C48.7772 29.8213 48.4429 29.3215 47.9259 29.1829L37.614 26.4244C37.2435 26.3189 36.8452 26.421 36.5713 26.6924C36.2975 26.9633 36.1916 27.3611 36.2936 27.7326C36.3956 28.1041 36.69 28.3916 37.0639 28.4843L47.3758 31.2433C47.4651 31.2672 47.5579 31.2794 47.6506 31.2794Z" fill="#2351DC"/>
<path d="M14.7462 33.5399L11.6538 32.7115C11.2828 32.6032 10.8821 32.7037 10.6067 32.9751C10.3314 33.2461 10.224 33.6449 10.3266 34.0178C10.4291 34.3902 10.7249 34.6783 11.1003 34.7705L14.1926 35.6003C14.2834 35.6243 14.3762 35.6365 14.4699 35.6365C15.0054 35.637 15.4579 35.2401 15.5277 34.7095C15.5975 34.1789 15.2631 33.6785 14.7462 33.5399Z" fill="#2351DC"/>
<path d="M45.3695 42.8485C45.5218 42.2798 45.184 41.696 44.6158 41.5432L20.9245 35.1964C20.3749 35.089 19.836 35.4259 19.6905 35.9667C19.5455 36.5076 19.8438 37.0689 20.3734 37.251L44.0633 43.5983C44.1536 43.6232 44.2463 43.6354 44.3396 43.6354C44.8213 43.6359 45.2436 43.3132 45.3695 42.8485Z" fill="#2351DC"/>
<path d="M13.0889 39.72L9.99658 38.8911C9.42888 38.7422 8.84751 39.08 8.6957 39.6467C8.54388 40.214 8.87924 40.7973 9.44548 40.9515L12.5378 41.7789C12.6277 41.8038 12.7204 41.8165 12.8141 41.816C13.3491 41.8165 13.8016 41.4197 13.8714 40.889C13.9417 40.3584 13.6073 39.8581 13.0899 39.72H13.0889Z" fill="#2351DC"/>
<path d="M42.9596 47.7241L19.2697 41.3759C18.8978 41.2656 18.4956 41.3657 18.2188 41.6371C17.942 41.9089 17.8346 42.3092 17.9381 42.6831C18.0416 43.0566 18.3403 43.3446 18.7172 43.4354L42.4075 49.7831C42.4978 49.808 42.591 49.8207 42.6848 49.8207C43.2198 49.8202 43.6718 49.4233 43.7416 48.8927C43.8109 48.3621 43.4765 47.8623 42.9596 47.7241Z" fill="#2351DC"/>
</g>
<defs>
<clipPath id="clip0_69_114">
<rect width="64" height="64" fill="white"/>
</clipPath>
</defs>
</svg>
