<svg width="48" height="48" viewBox="0 0 48 48" fill="none" xmlns="http://www.w3.org/2000/svg">
<path d="M5.71875 15.9375C4.59375 18.375 4.03125 21.1875 4.03125 24C4.03125 31.9688 8.625 38.7188 15.2812 42L5.71875 15.9375ZM37.4062 23.0625C37.4062 20.5312 36.5625 18.8438 35.8125 17.5312C34.7812 15.9375 33.8438 14.5312 33.8438 12.8438C33.8438 11.0625 35.25 9.28125 37.125 9.28125C37.2188 9.28125 37.3125 9.28125 37.4062 9.375C33.8438 6.09375 29.1562 4.125 24 4.125C16.9688 4.125 10.875 7.6875 7.3125 13.125C7.78125 13.125 8.15625 13.125 8.53125 13.125C10.6875 13.125 13.875 12.8438 13.875 12.8438C15 12.75 15.0938 14.3438 14.0625 14.5312C14.0625 14.5312 12.9375 14.625 11.7188 14.7188L19.0312 36.2812L23.3438 23.1562L20.25 14.7188C19.2188 14.625 18.1875 14.5312 18.1875 14.5312C17.0625 14.4375 17.25 12.75 18.2812 12.8438C18.2812 12.8438 21.5625 13.125 23.5312 13.125C25.5938 13.125 28.875 12.8438 28.875 12.8438C29.9062 12.75 30.0938 14.3438 28.9688 14.5312C28.9688 14.5312 27.9375 14.625 26.7188 14.7188L33.9375 36.0938L35.9062 29.4375C36.75 26.7188 37.4062 24.75 37.4062 23.0625ZM24.2812 25.7812L18.2812 43.2188C20.1562 43.6875 22.0312 43.9688 24 43.9688C26.25 43.9688 28.5 43.5938 30.5625 42.8438C30.5625 42.75 30.4688 42.6562 30.4688 42.5625L24.2812 25.7812ZM41.4375 14.4375C41.5312 15.0938 41.625 15.75 41.625 16.5C41.625 18.5625 41.25 20.8125 40.0312 23.625L33.9375 41.25C39.9375 37.7812 43.875 31.4062 43.875 24C43.875 20.5312 43.0312 17.3438 41.4375 14.4375ZM47.25 24C47.25 11.25 36.75 0.75 24 0.75C11.1562 0.75 0.75 11.25 0.75 24C0.75 36.8438 11.1562 47.25 24 47.25C36.75 47.25 47.25 36.8438 47.25 24ZM46.125 24C46.125 36.2812 36.1875 46.2188 24 46.2188C11.7188 46.2188 1.78125 36.2812 1.78125 24C1.78125 11.8125 11.7188 1.875 24 1.875C36.1875 1.875 46.125 11.8125 46.125 24Z" fill="#2351DC"/>
</svg>
